{"accessors" : [{"bufferView" : 0, "byteOffset" : 0, "componentType" : 5123, "count" : 1080, "type" : "SCALAR", "max" : [759], "min" : [0]}, {"bufferView" : 1, "byteOffset" : 0, "componentType" : 5126, "count" : 760, "type" : "VEC3", "max" : [8.520230293273926, 17.411874771118164, 8.520232200622559], "min" : [-8.52022933959961, 8.93678092956543, -8.520231246948242], "name" : "POSITION"}, {"bufferView" : 1, "byteOffset" : 12, "componentType" : 5126, "count" : 760, "type" : "VEC3", "max" : [1.0000044107437134, 1.0000044107437134, 1.0000044107437134], "min" : [-1.0000044107437134, -1.0000044107437134, -1.0000042915344238], "name" : "NORMAL"}, {"bufferView" : 1, "byteOffset" : 24, "componentType" : 5126, "count" : 760, "type" : "VEC2", "max" : [0.9886474609375, 0.20781242847442627], "min" : [0.010790516622364521, 0.008560717105865479], "name" : "TEXCOORD_0"}], "asset" : {"generator" : "Aspose.3D 25.3.0", "version" : "2.0"}, "buffers" : [{"uri" : "data:application/octet-stream;base64,", "byteLength" : 26488}], "bufferViews" : [{"buffer" : 0, "byteOffset" : 0, "byteLength" : 2160, "target" : 34963}, {"buffer" : 0, "byteOffset" : 2164, "byteLength" : 24320, "byteStride" : 32, "target" : 34962}], "images" : [{"uri" : "C:/Workspace/ARFaceFilter/Textures/PropsMaterial_Normal.png"}, {"uri" : "C:/Workspace/ARFaceFilter/Textures/PropsMaterial_Base_color.png"}], "materials" : [{"name" : "PropsMaterial", "pbrMetallicRoughness" : {"baseColorFactor" : [1, 1, 1, 1], "baseColorTexture" : {"index" : 1, "texCoord" : 0}, "metallicFactor" : 1, "roughnessFactor" : 1}, "normalTexture" : {"index" : 0, "texCoord" : 0, "scale" : 1}, "emissiveFactor" : [0, 0, 0], "alphaMode" : "OPAQUE", "doubleSided" : false}], "meshes" : [{"primitives" : [{"attributes" : {"POSITION" : 1, "NORMAL" : 2, "TEXCOORD_0" : 3}, "indices" : 0, "material" : 0, "mode" : 4}], "name" : ""}], "nodes" : [{"mesh" : 0, "name" : "HiHat"}], "samplers" : [{"magFilter" : 9729, "minFilter" : 9729, "wrapS" : 10497, "wrapT" : 10497}, {"magFilter" : 9729, "minFilter" : 9729, "wrapS" : 10497, "wrapT" : 10497}], "scene" : 0, "scenes" : [{"nodes" : [0]}], "textures" : [{"sampler" : 0, "source" : 0, "name" : "file3"}, {"sampler" : 1, "source" : 1, "name" : "file1"}]}